<svg width="20" height="20" viewBox="0 0 20 20" fill="none" xmlns="http://www.w3.org/2000/svg">
<path d="M9.02251 13.6492C8.1493 14.0904 7.16704 14.2695 6.19429 14.1649C5.22154 14.0602 4.29987 13.6762 3.54054 13.0592C2.78121 12.4423 2.21667 11.6188 1.91507 10.688C1.61346 9.75733 1.58768 8.75921 1.84084 7.81416L6.35084 9.02249C5.90957 8.14929 5.73047 7.16703 5.83514 6.19428C5.93982 5.22152 6.32381 4.29986 6.94075 3.54053C7.5577 2.7812 8.38123 2.21666 9.31195 1.91505C10.2427 1.61345 11.2408 1.58767 12.1858 1.84083L10.9775 6.35082C11.8507 5.90956 12.833 5.73045 13.8057 5.83513C14.7785 5.93981 15.7001 6.32379 16.4595 6.94074C17.2188 7.55768 17.7833 8.38122 18.0849 9.31194C18.3866 10.2427 18.4123 11.2408 18.1592 12.1858L13.6492 10.9775C14.0904 11.8507 14.2695 12.833 14.1649 13.8057C14.0602 14.7785 13.6762 15.7001 13.0593 16.4595C12.4423 17.2188 11.6188 17.7833 10.6881 18.0849C9.75734 18.3865 8.75922 18.4123 7.81417 18.1592L9.02251 13.6492Z" stroke="#FFB900" stroke-width="1.66667" stroke-linecap="round" stroke-linejoin="round"/>
<path d="M10 10V10.0083" stroke="#FFB900" stroke-width="1.66667" stroke-linecap="round" stroke-linejoin="round"/>
</svg>
