<svg width="20" height="20" viewBox="0 0 20 20" fill="none" xmlns="http://www.w3.org/2000/svg">
<path d="M5.83333 13.5833C7.66667 13.5833 9.16667 12.0583 9.16667 10.2083C9.16667 9.24167 8.69167 8.32501 7.74167 7.55001C6.79167 6.77501 6.075 5.62501 5.83333 4.41667C5.59167 5.62501 4.88333 6.78334 3.925 7.55001C2.96667 8.31667 2.5 9.25001 2.5 10.2083C2.5 12.0583 4 13.5833 5.83333 13.5833Z" stroke="#FFB900" stroke-width="1.66667" stroke-linecap="round" stroke-linejoin="round"/>
<path d="M10.4667 5.50001C11.0398 4.58428 11.4461 3.57421 11.6667 2.51668C12.0833 4.60001 13.3333 6.60001 15 7.93334C16.6667 9.26668 17.5 10.85 17.5 12.5167C17.5048 13.6686 17.1674 14.796 16.5307 15.7559C15.8939 16.7159 14.9865 17.4651 13.9234 17.9088C12.8604 18.3524 11.6895 18.4704 10.5593 18.2477C9.4291 18.0251 8.39044 17.472 7.575 16.6583" stroke="#FFB900" stroke-width="1.66667" stroke-linecap="round" stroke-linejoin="round"/>
</svg>
