<svg width="20" height="20" viewBox="0 0 20 20" fill="none" xmlns="http://www.w3.org/2000/svg">
<path d="M11.6667 3.33334V12.1167C12.3021 12.4836 12.7988 13.0499 13.0796 13.7278C13.3604 14.4057 13.4097 15.1574 13.2198 15.8662C13.0298 16.5749 12.6114 17.2012 12.0292 17.6479C11.4471 18.0946 10.7338 18.3368 10 18.3368C9.26623 18.3368 8.55295 18.0946 7.9708 17.6479C7.38865 17.2012 6.97017 16.5749 6.78025 15.8662C6.59034 15.1574 6.6396 14.4057 6.92041 13.7278C7.20121 13.0499 7.69787 12.4836 8.33334 12.1167V3.33334C8.33334 2.89131 8.50894 2.46739 8.8215 2.15483C9.13406 1.84227 9.55798 1.66667 10 1.66667C10.442 1.66667 10.866 1.84227 11.1785 2.15483C11.4911 2.46739 11.6667 2.89131 11.6667 3.33334Z" stroke="#FFB900" stroke-width="1.66667" stroke-linecap="round" stroke-linejoin="round"/>
</svg>
