<svg width="20" height="20" viewBox="0 0 20 20" fill="none" xmlns="http://www.w3.org/2000/svg">
<path d="M10.6667 16.3333C10.8779 16.4918 11.1238 16.5978 11.3841 16.6425C11.6444 16.6873 11.9115 16.6696 12.1636 16.5909C12.4157 16.5121 12.6454 16.3746 12.8339 16.1897C13.0224 16.0047 13.1643 15.7776 13.2478 15.5271C13.3313 15.2765 13.3541 15.0097 13.3143 14.7487C13.2745 14.4876 13.1732 14.2397 13.0187 14.0255C12.8643 13.8113 12.6612 13.6368 12.4261 13.5164C12.1911 13.3961 11.9308 13.3333 11.6667 13.3333H1.66667" stroke="#FFB900" stroke-width="1.66667" stroke-linecap="round" stroke-linejoin="round"/>
<path d="M14.5833 6.66668C14.7964 6.38258 15.0786 6.15767 15.403 6.01329C15.7275 5.86892 16.0834 5.80987 16.4371 5.84176C16.7908 5.87365 17.1304 5.99542 17.4238 6.19551C17.7172 6.3956 17.9546 6.66735 18.1134 6.98498C18.2722 7.30261 18.3472 7.65556 18.3312 8.01032C18.3153 8.36508 18.2089 8.70987 18.0222 9.01195C17.8355 9.31403 17.5747 9.56338 17.2645 9.73631C16.9543 9.90924 16.6051 10 16.25 10H1.66667" stroke="#FFB900" stroke-width="1.66667" stroke-linecap="round" stroke-linejoin="round"/>
<path d="M8.16667 3.66668C8.37794 3.50823 8.62384 3.40225 8.8841 3.35747C9.14437 3.3127 9.41154 3.33041 9.66362 3.40915C9.91569 3.4879 10.1454 3.62541 10.3339 3.81037C10.5224 3.99533 10.6643 4.22243 10.7478 4.47296C10.8313 4.7235 10.8541 4.99029 10.8143 5.25136C10.7744 5.51242 10.6732 5.76029 10.5187 5.97453C10.3643 6.18877 10.1612 6.36324 9.92614 6.48358C9.69106 6.60392 9.43076 6.66668 9.16667 6.66668H1.66667" stroke="#FFB900" stroke-width="1.66667" stroke-linecap="round" stroke-linejoin="round"/>
</svg>
