<svg width="13" height="13" viewBox="0 0 13 13" fill="none" xmlns="http://www.w3.org/2000/svg">
<g clip-path="url(#clip0_151_535)">
<path d="M4.47113 6.45827C5.02913 6.45827 5.42813 6.66227 5.66813 7.07027C5.90813 7.47827 6.02813 8.06327 6.02813 8.82527C6.02813 9.41927 5.96513 9.88427 5.83913 10.2203C5.71913 10.5563 5.53313 10.7933 5.28113 10.9313C5.03513 11.0633 4.72613 11.1293 4.35413 11.1293C4.03613 11.1293 3.73313 11.0843 3.44513 10.9943C3.15713 10.9043 2.90213 10.7543 2.68013 10.5443L2.77013 9.95027C2.96813 10.0103 3.14813 10.0643 3.31013 10.1123C3.47813 10.1543 3.66713 10.1753 3.87713 10.1753C4.06913 10.1753 4.22213 10.1423 4.33613 10.0763C4.45013 10.0103 4.53113 9.88127 4.57913 9.68927C4.63313 9.49127 4.66013 9.20627 4.66013 8.83427C4.66013 8.46827 4.63613 8.18927 4.58813 7.99727C4.54013 7.79927 4.46213 7.66427 4.35413 7.59227C4.24613 7.51427 4.10513 7.47527 3.93113 7.47527C3.73913 7.47527 3.56213 7.51427 3.40013 7.59227C3.23813 7.66427 3.05513 7.76927 2.85113 7.90727L2.68013 7.29527C2.80013 7.13327 2.95313 6.98927 3.13913 6.86327C3.33113 6.73727 3.54113 6.63827 3.76913 6.56627C3.99713 6.49427 4.23113 6.45827 4.47113 6.45827ZM2.62613 6.56627L2.75213 7.37627L2.87813 7.51127V10.4003L2.83313 10.5083C2.85113 10.6883 2.86313 10.8743 2.86913 11.0663C2.88113 11.2643 2.88413 11.4593 2.87813 11.6513V12.7223H1.54613V6.56627H2.62613ZM8.40962 4.80227V11.0123H7.03262V4.80227H8.40962ZM10.7136 7.18727V8.22227H8.33762V7.18727H10.7136ZM11.9916 4.80227V11.0123H10.6146V4.80227H11.9916Z" fill="#D4AF37"/>
</g>
<defs>
<clipPath id="clip0_151_535">
<rect width="12.0738" height="12.0738" fill="white"/>
</clipPath>
</defs>
</svg>
